<svg width="53" height="47" xmlns="http://www.w3.org/2000/svg"><g fill="none" fill-rule="evenodd"><path d="M18.964 2.225C18.963 2.225 34.406-3.1 46 8.453l-2.91 1.872S39.197 5.333 28.404 4.05c0 0 6.805 2.699 9.445 9.24l-3.089 1.542s-4.036-9.184-13.02-9.477l4.212 12.975s-1.414.515-3.39 1.012L18.39 6.482s-6.629 3.35-5.269 14.683l-3.36.334S8.057 14.47 12.218 8.765c0 0-7.497 5.332-8.697 13.166L0 22S1.2 7.777 18.964 2.225" fill="#DB334A"/><path d="M24.045 21.653s1.862-.518 3.394-1.01l1.242 4.021s2.357-1.213 2.596-4.8l2.813-1.196s.938 6.895-4.325 9.506l1.105 3.582c6.88-3.635 5.357-14.795 5.357-14.795l3.07-1.609c1.615 6.903-1.498 12.774-1.498 12.774 7.469-6.289 6.915-15.999 6.915-15.999L47.912 10s2.378 19.784-17.608 25.701C9.766 41.784 1 24.526 1 24.526l3.818-.137s4.919 7.849 14.552 9.028c0 0-5.745-2.763-8.228-9.474l3.442-.411s4.681 9.871 12.895 9.244l-1.099-3.56c-6.113.77-9.134-5.437-9.134-5.437l3.141-.627s1.848 2.882 4.9 2.523l-1.242-4.022m13.963 16.349h8.65c1.278-.024 4.416.157 4.416 2.092 0 1.572-2.157 2.278-2.523 2.317L52 46h-5.047l-2.472-2.983h-2.238L42.257 46H38l.008-7.998zm4.26 3.427h1.978c.993-.024 1.954-.271 1.945-.992-.011-.728-1.043-.882-1.98-.882-1.183 0-1.935.01-1.935.01l-.008 1.864z" fill="#005795"/><path d="M18.418 13.044c.28.061 1.947.507 1.51 2.903-.41 2.244-2.05 2.095-2.33 2.018-.298-.083-1.902-.61-1.547-2.821.392-2.43 2.048-2.171 2.367-2.1" fill="#DB334A"/><g fill="#005795"><path d="M50.352 1.922v.51h-.299V1.117l.637.004c.105.007.191.03.26.066.116.065.175.17.175.315 0 .11-.031.19-.092.24a.432.432 0 0 1-.229.088.453.453 0 0 1 .187.076c.077.062.116.16.116.294v.117a.26.26 0 0 0 .003.04.177.177 0 0 0 .009.038l.011.037h-.329a.936.936 0 0 1-.02-.182.587.587 0 0 0-.022-.16c-.017-.047-.049-.124-.096-.142a.38.38 0 0 0-.117-.021l-.076-.005h-.118zm.368-.24c.045-.032.067-.085.067-.156 0-.072-.036-.122-.106-.15a.562.562 0 0 0-.2-.027h-.129v.381h.18a.325.325 0 0 0 .188-.048z"/><path d="M51.484 1.105c.246.27.313.718.202 1.077-.135.359-.471.695-.83.785a1.22 1.22 0 0 1-1.279-.471 1.199 1.199 0 0 1-.134-1.099c.157-.426.606-.718 1.009-.763.426-.022.785.135 1.032.471zM50.55.833a.937.937 0 0 0-.696.296.95.95 0 0 0-.284.688.95.95 0 0 0 .289.7c.19.192.42.288.691.288.27 0 .5-.097.691-.29a.96.96 0 0 0 .286-.698.952.952 0 0 0-.285-.688.932.932 0 0 0-.692-.296z"/></g><path d="M26.956 10.441c-.262.153-1.83 1.408-.283 3.412 1.447 1.877 3.095.93 3.375.742.325-.22 1.736-1.483.36-3.354-1.512-2.057-3.148-.977-3.452-.8" fill="#DB334A"/><path d="M11.242 38.027c1.712.079 4.455.503 4.455.503l-1.512 1.315s-5.357-.857-5.383.117c-.014.56 3.628 1.35 4.76 1.682.85.25 2.443.812 2.438 1.799-.006 1.24-2.56 2.649-7.924 2.552-2.157-.038-5.765-.328-7.076-.638l1.996-1.335s2.306.356 3.629.426c1.089.058 2.782-.058 2.903-.696.121-.638-2.567-1.165-3.87-1.551-1.371-.406-3.242-.684-3.267-2.02-.033-1.728 3.834-1.995 4.88-2.076 1.25-.097 2.7-.136 3.97-.078m20.444.366l.52 1.638s-3.113-.429-4.47-.39c-1.356.039-4.934.195-4.827 2.613.08 1.795 3.135 2.147 4.309 2.147 1.217 0 2.29-.507 2.29-.507l-.558-1.92 3.828-.008L34 45.726h-3.9l-.102-.297S28.175 46 25.98 46c-2.035 0-8.015-.664-7.98-3.901.041-3.628 6.937-4.06 9.137-4.097 2.39-.038 4.548.391 4.548.391" fill="#005795"/></g></svg>